<svg width="435" height="96" viewBox="0 0 435 96" fill="none" xmlns="http://www.w3.org/2000/svg">
    <path d="M281.011 53.9615H268.574V34.741C268.574 34.3298 268.266 34.0215 267.854 34.0215H259.94C259.529 34.0215 259.221 34.3298 259.221 34.741V61.1564C259.221 61.5675 259.529 61.8759 259.94 61.8759H280.908C281.319 61.8759 281.628 61.5675 281.628 61.1564V54.5782C281.73 54.2699 281.422 53.9615 281.011 53.9615ZM370.638 44.6082C370.638 46.3555 369.302 47.2806 367.041 47.2806H363.032V41.833H367.144C369.302 41.833 370.638 42.7581 370.638 44.6082ZM374.852 53.1393C374.647 52.8309 374.75 52.4198 375.058 52.1114C378.039 50.4669 379.889 47.6917 379.889 43.9915V43.8887C379.889 41.0108 378.964 38.9551 377.319 37.3106C375.366 35.3577 372.18 34.1243 367.246 34.1243H354.501C354.09 34.1243 353.782 34.4326 353.782 34.8438V61.2592C353.782 61.6703 354.09 61.9787 354.501 61.9787H362.416C362.827 61.9787 363.135 61.6703 363.135 61.2592V53.9615H365.088L370.124 61.5675C370.227 61.7731 370.433 61.8759 370.741 61.8759H379.683C380.3 61.8759 380.608 61.2592 380.3 60.7453L374.852 53.1393ZM342.064 48.1029C342.064 51.3919 339.803 54.2699 336.308 54.2699C332.711 54.2699 330.45 51.2892 330.45 48.0001V47.8973C330.45 44.6082 332.711 41.7303 336.206 41.7303C339.7 41.7303 342.064 44.711 342.064 48.1029ZM336.206 33.5076C327.572 33.5076 320.994 39.9829 320.994 48.0001V48.1029C320.994 56.2228 327.572 62.5954 336.206 62.5954C344.839 62.5954 351.418 56.12 351.418 48.1029V48.0001C351.418 39.8802 344.839 33.5076 336.206 33.5076ZM256.137 54.2699H242.056V53.5504V51.9059V51.1864H255.007C255.418 51.1864 255.726 50.878 255.726 50.4669V45.1221C255.726 44.711 255.418 44.4026 255.007 44.4026H242.056V41.6275H255.932C256.343 41.6275 256.651 41.3191 256.651 40.908V34.6382C256.651 34.2271 256.343 33.9187 255.932 33.9187H233.627C233.216 33.9187 232.908 34.2271 232.908 34.6382V61.0536C232.908 61.4647 233.216 61.7731 233.627 61.7731H256.137C256.548 61.7731 256.857 61.4647 256.857 61.0536V54.7838C256.857 54.5782 256.445 54.2699 256.137 54.2699ZM404.66 53.9615H392.223V34.741C392.223 34.3298 391.914 34.0215 391.503 34.0215H383.589C383.178 34.0215 382.869 34.3298 382.869 34.741V61.1564C382.869 61.5675 383.178 61.8759 383.589 61.8759H404.557C404.968 61.8759 405.276 61.5675 405.276 61.1564V54.5782C405.379 54.2699 405.071 53.9615 404.66 53.9615ZM321.302 34.0215H313.182C312.874 34.0215 312.565 34.2271 312.463 34.5354L309.276 45.2249C309.071 45.8416 308.146 45.9444 307.94 45.2249L304.343 34.4326C304.24 34.1243 303.932 33.9187 303.726 33.9187H296.737C296.428 33.9187 296.12 34.1243 296.017 34.4326L292.42 45.2249C292.214 45.8416 291.289 45.8416 291.084 45.2249L287.897 34.5354C287.795 34.2271 287.486 34.0215 287.178 34.0215H278.955C278.544 34.0215 278.236 34.3298 278.236 34.741C278.236 34.8438 278.236 34.8438 278.236 34.9465L286.869 61.5675C286.972 61.8759 287.281 62.0814 287.589 62.0814H294.681C294.989 62.0814 295.195 61.8759 295.298 61.5675L299.409 50.0557C299.615 49.439 300.54 49.439 300.745 50.0557L304.857 61.5675C304.959 61.8759 305.268 62.0814 305.473 62.0814H312.565C312.874 62.0814 313.182 61.8759 313.285 61.5675L321.919 34.9465C322.021 34.5354 321.816 34.2271 321.508 34.0215C321.405 34.1243 321.302 34.0215 321.302 34.0215ZM142.047 34.0215H134.133C133.722 34.0215 133.413 34.3298 133.413 34.741V43.8887H124.882V34.741C124.882 34.3298 124.574 34.0215 124.163 34.0215H116.248C115.837 34.0215 115.529 34.3298 115.529 34.741V61.1564C115.529 61.5675 115.837 61.8759 116.248 61.8759H124.163C124.574 61.8759 124.882 61.5675 124.882 61.1564V51.9059H133.413V61.1564C133.413 61.5675 133.722 61.8759 134.133 61.8759H142.047C142.458 61.8759 142.767 61.5675 142.767 61.1564V34.741C142.767 34.3298 142.458 34.0215 142.047 34.0215ZM425.525 48.0001C425.525 52.0086 422.75 53.756 418.535 53.756H416.994V42.1414H418.535C422.75 42.1414 425.525 43.8887 425.525 48.0001ZM418.33 34.0215H408.36C407.949 34.0215 407.64 34.3298 407.64 34.741V61.1564C407.64 61.5675 407.949 61.8759 408.36 61.8759H418.021C429.328 61.8759 434.981 56.0172 434.981 47.7945V47.6917C434.878 39.469 429.328 34.0215 418.33 34.0215ZM190.869 43.8887C187.889 43.3748 187.169 42.8609 187.169 42.1414V42.0386C187.169 41.3191 187.786 40.908 189.225 40.908C191.589 40.908 194.57 41.6275 197.036 43.272C197.345 43.4776 197.756 43.3748 197.962 43.0665L201.662 37.9273C201.867 37.6189 201.765 37.2078 201.456 36.8994C198.373 34.6382 194.467 33.5076 189.43 33.5076C181.722 33.5076 177.61 37.6189 177.61 42.8609V42.9637C177.61 48.8223 183.058 50.6724 189.328 51.9059C192.308 52.5226 193.233 52.9337 193.233 53.756V53.8587C193.233 54.5782 192.514 55.0922 190.869 55.0922C187.786 55.0922 184.497 54.2699 181.619 52.2142C181.311 52.0086 180.899 52.1114 180.694 52.317L176.583 57.1478C176.377 57.4562 176.377 57.8673 176.685 58.1757C180.18 60.9508 185.011 62.3898 190.458 62.3898C197.962 62.3898 202.792 58.7924 202.792 52.9337V52.8309C202.792 47.2806 197.962 45.2249 190.869 43.8887ZM229.208 34.0215H204.951C204.54 34.0215 204.231 34.3298 204.231 34.741V41.2163C204.231 41.6275 204.54 41.9358 204.951 41.9358H212.454V61.1564C212.454 61.5675 212.762 61.8759 213.174 61.8759H221.088C221.499 61.8759 221.807 61.5675 221.807 61.1564V41.9358H229.311C229.722 41.9358 230.03 41.6275 230.03 41.2163V34.741C229.927 34.3298 229.619 34.0215 229.208 34.0215ZM166.304 48.1029C166.304 51.3919 164.043 54.2699 160.548 54.2699C156.951 54.2699 154.69 51.2892 154.69 48.0001V47.8973C154.69 44.6082 156.951 41.7303 160.445 41.7303C164.043 41.7303 166.304 44.711 166.304 48.1029C166.304 48.1029 166.304 48.0001 166.304 48.1029ZM160.548 33.5076C151.914 33.5076 145.336 39.9829 145.336 48.0001V48.1029C145.336 56.2228 151.914 62.5954 160.548 62.5954C169.182 62.5954 175.76 56.12 175.76 48.1029V48.0001C175.76 39.8802 169.182 33.5076 160.548 33.5076Z" fill="#F25621"/>
    <path d="M96 82.6381C96 90.0385 90.0385 96 82.6381 96H13.3619C5.96146 96 0 90.0385 0 82.6381V13.3619C0 5.96146 5.96146 0 13.3619 0H82.6381C90.0385 0 96 5.96146 96 13.3619V82.6381Z" fill="#F25621"/>
    <path d="M79.4519 15.3148H60.2313C59.5118 15.3148 58.8951 15.9315 58.8951 16.651V33.8159H61.0536C61.3619 33.8159 61.5675 34.1242 61.5675 34.4326C61.5675 34.5354 61.5675 34.6382 61.4647 34.7409L49.2334 47.1778C48.8223 47.6917 48.8223 48.3084 49.2334 48.8223L61.5675 61.3619C61.6703 61.4647 61.6703 61.5675 61.6703 61.6703C61.6703 61.9786 61.4647 62.1842 61.1564 62.287H58.9979V79.4519C58.9979 80.1713 59.6146 80.788 60.3341 80.788H79.5546C80.2741 80.788 80.8908 80.1713 80.8908 79.4519V16.5482C80.6853 15.8287 80.1714 15.3148 79.4519 15.3148ZM34.6382 34.7409C34.4326 34.5354 34.4326 34.1242 34.6382 33.9187C34.7409 33.8159 34.8437 33.7131 35.0493 33.7131H37.2078V16.5482C37.2078 15.8287 36.5911 15.212 35.8716 15.212H16.651C15.9315 15.212 15.3148 15.8287 15.3148 16.5482V79.3491C15.3148 80.0686 15.9315 80.6853 16.651 80.6853H35.8716C36.5911 80.6853 37.2078 80.0686 37.2078 79.3491V62.287H35.0493C34.7409 62.287 34.4326 61.9786 34.5354 61.6703C34.5354 61.5675 34.6382 61.3619 34.7409 61.2591L46.9722 48.8223C47.3833 48.3084 47.3833 47.6917 46.9722 47.1778L34.6382 34.7409Z" fill="white"/>
</svg>
