<svg width="194" height="30" viewBox="0 0 194 30" fill="none" xmlns="http://www.w3.org/2000/svg">
<g clip-path="url(#clip0_1_196)">
<path fill-rule="evenodd" clip-rule="evenodd" d="M0 6.49767V12.4074L0.5664 12.698C0.878016 12.8579 1.18042 12.9888 1.2384 12.9888C1.29658 12.9888 1.344 10.9846 1.344 8.53485V4.08088L2.1433 3.95396C2.86714 3.83905 3.00326 3.88536 3.5833 4.44334C4.14566 4.98418 4.224 5.17932 4.224 6.03726C4.224 6.81383 4.31578 7.10025 4.67021 7.43089C4.91558 7.65976 5.17478 7.78897 5.24621 7.71807C5.31763 7.64737 5.376 7.04632 5.376 6.38238V5.17551H6.60826C8.07418 5.17551 8.448 5.05926 8.448 4.6038C8.448 4.12528 8.07591 4.03209 6.16493 4.03209C3.90221 4.03209 3.744 3.90537 3.744 2.09229V0.69714L1.872 0.642637L0 0.588135V6.49767ZM4.59206 0.680561C4.5481 0.72401 4.54118 1.28142 4.57709 1.91926L4.64218 3.07925H7.79309H10.944V1.84055V0.601856H10.368C9.8377 0.601856 9.792 0.654834 9.792 1.26885C9.792 1.92002 9.77376 1.93584 9.024 1.93584C8.27424 1.93584 8.256 1.92002 8.256 1.26885C8.256 0.654834 8.2103 0.601856 7.68 0.601856C7.1497 0.601856 7.104 0.654834 7.104 1.26885C7.104 1.90401 7.07194 1.93584 6.432 1.93584C5.79206 1.93584 5.76 1.90401 5.76 1.26885C5.76 0.6636 5.7097 0.601856 5.21606 0.601856C4.91674 0.601856 4.63603 0.637302 4.59206 0.680561ZM13.248 1.84055V3.07925H16.512H19.776V1.84055V0.601856H19.2C18.6697 0.601856 18.624 0.654834 18.624 1.26885C18.624 1.90401 18.5919 1.93584 17.952 1.93584C17.3121 1.93584 17.28 1.90401 17.28 1.26885C17.28 0.633681 17.2479 0.601856 16.608 0.601856C15.9681 0.601856 15.936 0.633681 15.936 1.26885C15.936 1.90401 15.9039 1.93584 15.264 1.93584C14.6241 1.93584 14.592 1.90401 14.592 1.26885C14.592 0.633681 14.5599 0.601856 13.92 0.601856H13.248V1.84055ZM20.4046 2.02064C20.4922 3.16825 20.4553 3.48688 20.212 3.68812C20.0256 3.84229 19.1368 3.97302 17.8756 4.03209C15.8579 4.12662 15.84 4.13157 15.84 4.6038C15.84 5.06307 15.8903 5.08232 17.232 5.13625L18.624 5.19228V6.33321C18.624 7.21936 18.695 7.5014 18.942 7.59535C19.4613 7.79316 19.968 6.98286 19.968 5.95398C19.968 5.19475 20.0623 4.96931 20.592 4.46125C21.1488 3.92747 21.3039 3.87487 22.032 3.97264L22.848 4.08221V8.53561C22.848 10.9848 22.8954 12.9888 22.9536 12.9888C23.0116 12.9888 23.314 12.8579 23.6256 12.698L24.192 12.4074V6.50453V0.601856H22.2444H20.2965L20.4046 2.02064ZM2.65344 2.36462C2.6064 2.69335 2.44627 2.80731 1.968 2.85304C1.41062 2.9064 1.344 2.86067 1.344 2.42426C1.344 1.99129 1.42176 1.93584 2.02944 1.93584C2.63021 1.93584 2.7072 1.98862 2.65344 2.36462ZM22.848 2.41226C22.848 2.78234 22.7495 2.88868 22.4064 2.88868C21.9178 2.88868 21.504 2.56529 21.504 2.18358C21.504 2.0275 21.7526 1.93584 22.176 1.93584C22.7649 1.93584 22.848 1.99491 22.848 2.41226ZM8.49965 6.72864C6.5088 8.75686 4.30042 11.0233 3.59194 11.7654C2.39443 13.0199 2.05805 13.5605 2.47526 13.5605C2.56934 13.5605 3.07642 13.9443 3.60211 14.4133C5.21299 15.8508 6.14957 15.9512 7.57248 14.8383C8.60198 14.0331 9.26035 14.0638 10.4573 14.973C11.3276 15.6341 11.495 15.6901 12.3773 15.6173C13.122 15.5558 13.5569 15.3761 14.2708 14.8349C15.361 14.0082 15.8911 13.959 16.6721 14.6113C17.5006 15.3033 18.5015 15.6717 19.1848 15.536C19.7328 15.4272 21.984 13.6699 21.984 13.3509C21.984 13.2156 13.386 4.17654 12.5126 3.39369C12.1235 3.04476 12.0822 3.07906 8.49965 6.72864ZM2.24006 4.73091C2.1696 4.80066 2.112 5.95836 2.112 7.30359C2.112 9.88122 2.23238 10.1837 2.94624 9.40061C3.20371 9.11818 3.264 8.63014 3.264 6.82793C3.264 4.62495 3.25978 4.6038 2.81606 4.6038C2.56954 4.6038 2.31034 4.66097 2.24006 4.73091ZM20.8641 4.73091C20.7936 4.80066 20.736 5.82001 20.736 6.99582C20.736 9.05777 20.7529 9.14448 21.2093 9.44139C21.4694 9.61061 21.7286 9.74916 21.7853 9.74916C21.8417 9.74916 21.888 8.59145 21.888 7.17648C21.888 4.60837 21.8872 4.6038 21.4401 4.6038C21.1935 4.6038 20.9343 4.66097 20.8641 4.73091ZM14.5413 7.12598C15.8364 8.40831 16.896 9.56602 16.896 9.69866C16.896 10.1461 16.0118 9.94373 15.4573 9.36954C14.9407 8.83424 14.8856 8.81842 14.5567 9.1138C14.2644 9.3764 14.1224 9.39051 13.698 9.1986C13.1007 8.92838 12.9162 9.06578 12.8308 9.84444C12.783 10.2795 12.6586 10.4316 12.3097 10.4804C11.8017 10.5518 11.5275 10.2509 11.5229 9.61747C11.519 9.05129 11.3011 8.95811 10.5978 9.22166C10.0932 9.41071 9.94618 9.39317 9.6263 9.1058C9.2617 8.77821 9.23501 8.7864 8.81261 9.35335C8.50502 9.76631 8.21606 9.93973 7.8359 9.93973C7.53542 9.93973 7.296 9.83529 7.296 9.70418C7.296 9.48579 11.8769 4.79437 12.0904 4.79437C12.1432 4.79437 13.2461 5.84364 14.5413 7.12598ZM0 14.3093C0 15.0571 0.00134404 15.0584 1.104 15.3746C2.03712 15.6421 2.40346 15.8931 3.47021 16.9959C4.16506 17.7144 4.97107 18.36 5.26349 18.433C6.14227 18.652 7.19693 18.2091 8.02733 17.2728C8.44378 16.8033 8.92032 16.4191 9.0864 16.4191C9.25248 16.4191 9.61805 16.7179 9.89875 17.083C11.3405 18.9593 13.2557 18.967 14.6886 17.1023C14.9773 16.7265 15.3544 16.4191 15.5268 16.4191C15.6991 16.4191 16.0867 16.7261 16.3884 17.1011C17.4422 18.412 18.633 18.816 19.7512 18.2422C20.044 18.0919 20.6872 17.5 21.1805 16.9269C21.8252 16.178 22.3747 15.7626 23.1347 15.4498C24.1597 15.0283 24.192 14.9923 24.192 14.275C24.192 13.5965 24.1559 13.5455 23.76 13.6627C22.8591 13.9295 21.6941 14.7375 21.0029 15.5747C20.1623 16.5929 19.474 16.9908 18.553 16.9908C18.0217 16.9908 17.6744 16.7979 16.8365 16.0379C16.2588 15.5139 15.6952 15.0851 15.5843 15.0851C15.4733 15.0851 14.8996 15.5043 14.3098 16.0168C12.6547 17.4542 11.8691 17.4535 10.2816 16.0135C9.71866 15.5028 9.13594 15.0851 8.98675 15.0851C8.83738 15.0851 8.41766 15.3925 8.05363 15.7683C7.20557 16.6441 6.52819 16.9908 5.66496 16.9908C5.0688 16.9908 4.80749 16.8215 3.74822 15.7492C2.63962 14.627 0.940416 13.5678 0.24 13.5624C0.08832 13.5613 0 13.8363 0 14.3093ZM0.124416 16.1685C0.056064 16.2365 0 16.5833 0 16.9393C0 17.4479 0.072 17.5756 0.336 17.5358C1.11437 17.4184 1.75142 17.8236 3.06797 19.2732C5.23181 21.6555 6.4128 21.7266 8.46374 19.5976C9.08755 18.95 9.59578 18.3343 9.5929 18.2295C9.59002 18.1247 9.47213 17.8876 9.33063 17.7027C9.09255 17.3912 9.02554 17.4194 8.42054 18.0839C7.26912 19.3483 6.74899 19.6587 5.78208 19.6587C4.92518 19.6587 4.84877 19.6094 3.456 18.1544C2.664 17.3269 1.8432 16.5669 1.632 16.4656C1.04659 16.1845 0.263808 16.0303 0.124416 16.1685ZM23.4332 16.1894C23.1535 16.2344 22.2902 16.9532 21.3043 17.9619C19.7101 19.5932 19.6134 19.6587 18.7991 19.6574C17.8426 19.6561 17.2931 19.3456 16.2824 18.2363C15.686 17.5817 15.553 17.515 15.2851 17.7357C15.1152 17.8758 14.976 18.0532 14.976 18.13C14.976 18.2068 15.5005 18.8378 16.1416 19.5322C16.9688 20.4281 17.5154 20.8504 18.0242 20.9864C19.2463 21.3129 19.8964 20.987 21.6133 19.1869C22.8079 17.9343 23.2802 17.5625 23.6773 17.5625C24.1359 17.5625 24.192 17.491 24.192 16.9067C24.192 16.1679 24.1012 16.0819 23.4332 16.1894ZM0 19.5634C0 20.1818 0.0432 20.2304 0.59328 20.2304C1.07962 20.2304 1.50682 20.5374 2.96064 21.9309C4.26893 23.1848 4.90944 23.6637 5.40038 23.7552C6.48576 23.9572 7.5312 23.4076 8.88461 21.9236L10.08 20.6127L11.04 21.0989C12.1146 21.6429 12.9132 21.6121 13.9165 20.9876L14.4891 20.6314L15.8365 22.0296C18.191 24.4727 19.2459 24.4357 21.8043 21.8211C22.8104 20.7928 23.5077 20.2304 23.7763 20.2304C24.1235 20.2304 24.192 20.1203 24.192 19.5634C24.192 18.3726 23.1565 18.7871 21.3661 20.6949C19.1948 23.0084 18.3074 23.0196 16.0767 20.7621L14.5855 19.2528L13.5583 19.7515C12.4243 20.3023 11.9409 20.275 10.727 19.5922L10.0301 19.2002L8.61504 20.6813C6.42182 22.9769 5.58336 22.9853 3.27494 20.7347C1.69709 19.1962 1.24339 18.8965 0.492672 18.8965C0.0576 18.8965 0 18.9744 0 19.5634ZM0.128064 21.8821C0.0576 21.9518 0 23.5383 0 25.4076V28.806H5.472H10.944V27.4193C10.944 25.7379 11.2447 25.1839 12.1549 25.1881C13.1987 25.193 13.3348 25.3989 13.44 27.1311L13.536 28.7107L18.864 28.7614L24.192 28.8121V25.3901C24.192 23.3834 24.115 21.9208 24.0056 21.8537C23.7043 21.6689 22.8154 22.2305 21.888 23.1915C20.5048 24.6248 19.6307 25.1852 18.7776 25.1852C17.708 25.1852 17.1132 24.8125 15.7526 23.2893C15.0925 22.5502 14.4703 21.9456 14.37 21.9456C14.2696 21.9456 13.8829 22.151 13.5107 22.4022L12.8335 22.8588L13.5688 23.0964C14.0605 23.2553 14.7807 23.8246 15.744 24.8157C17.0292 26.1381 17.2804 26.3113 18.0816 26.4277C19.3905 26.6179 20.2652 26.2516 21.648 24.9342L22.848 23.7908V25.6313V27.4721H18.816H14.784L14.7798 26.8527C14.7729 25.8337 14.1508 24.7204 13.3874 24.3608C11.5615 23.501 9.792 24.701 9.792 26.799V27.4721H5.568H1.344V25.6384C1.344 23.5362 1.16563 23.5665 3.23616 25.3158C4.14067 26.0798 4.60704 26.3338 5.29402 26.4359C6.7776 26.6568 7.59456 26.2852 9.12 24.6962C9.8592 23.9263 10.7604 23.1814 11.1226 23.0411L11.7813 22.786L11.0636 22.3658C10.6691 22.1346 10.2772 21.9456 10.1929 21.9456C10.1088 21.9456 9.50054 22.5479 8.84122 23.2843C8.18189 24.0207 7.39603 24.7496 7.09478 24.9041C5.83872 25.5488 4.39853 25.0825 3.26746 23.6651C2.29133 22.4418 0.556608 21.4566 0.128064 21.8821Z" fill="#EEB053"/>
<path d="M100.589 24.1399H99.4667C93.3467 24.1399 90.1167 21.6239 90.1167 15.3339V14.2459C90.1167 7.95594 93.3467 5.43994 99.4667 5.43994H100.589C106.709 5.43994 109.939 7.95594 109.939 14.2459V15.3679C109.939 21.6579 106.709 24.1399 100.589 24.1399ZM100.045 21.2499C104.125 21.2499 106.573 20.3659 106.573 15.0959V14.4499C106.573 9.21394 104.125 8.32994 100.045 8.32994C95.9307 8.32994 93.4827 9.21394 93.4827 14.4839V15.1299C93.4827 20.3659 95.9307 21.2499 100.045 21.2499Z" fill="#242424"/>
<path d="M86.4234 0V23.8H83.0574V0H86.4234Z" fill="#242424"/>
<path d="M70.0418 24.1399H68.9198C62.7998 24.1399 59.5698 21.6239 59.5698 15.3339V14.2459C59.5698 7.95594 62.7998 5.43994 68.9198 5.43994H70.0418C76.1618 5.43994 79.3918 7.95594 79.3918 14.2459V15.3679C79.3918 21.6579 76.1618 24.1399 70.0418 24.1399ZM69.4978 21.2499C73.5778 21.2499 76.0258 20.3659 76.0258 15.0959V14.4499C76.0258 9.21394 73.5778 8.32994 69.4978 8.32994C65.3838 8.32994 62.9358 9.21394 62.9358 14.4839V15.1299C62.9358 20.3659 65.3838 21.2499 69.4978 21.2499Z" fill="#242424"/>
<path d="M36.6069 29.5799V5.77994H39.9729V8.73794H40.1089C41.0269 6.59594 43.0329 5.43994 46.9769 5.43994H47.5889C52.9609 5.43994 56.4289 7.61594 56.4289 14.1439V15.4019C56.4289 21.9979 52.9609 24.1399 47.5889 24.1399H46.9769C43.0329 24.1399 41.0269 22.9839 40.1089 20.8419H39.9729V29.5799H36.6069ZM46.5009 8.32994C42.3529 8.32994 39.9729 9.21394 39.9729 14.3139V15.1299C39.9729 20.3659 42.3529 21.2499 46.5009 21.2499C50.7169 21.2499 53.0629 20.3659 53.0629 15.1299V14.4839C53.0629 9.21394 50.7169 8.32994 46.5009 8.32994Z" fill="#242424"/>
<path fill-rule="evenodd" clip-rule="evenodd" d="M115.225 5.93446C115.065 5.99237 114.836 6.19746 114.715 6.39023C114.5 6.73473 114.496 6.87596 114.496 14.836C114.496 23.8154 114.465 23.4232 115.198 23.7261C115.677 23.9242 117.181 23.9242 117.66 23.7261C118.383 23.4272 118.362 23.6481 118.362 16.3994C118.362 12.807 118.391 9.79206 118.427 9.69961C118.485 9.55126 118.888 9.5315 121.86 9.5315C125.079 9.5315 125.232 9.54053 125.338 9.73701C125.411 9.87239 125.449 12.2051 125.449 16.5712V23.1998L125.779 23.5119C126.104 23.8203 126.122 23.824 127.344 23.824H128.581L128.894 23.477L129.208 23.1299V16.5362C129.208 12.1943 129.246 9.87239 129.319 9.73701C129.425 9.54064 129.577 9.5315 132.734 9.5315C135.16 9.5315 136.071 9.5654 136.166 9.65901C136.263 9.7554 136.295 11.3953 136.296 16.3802C136.298 21.4376 136.329 23.0357 136.432 23.2396C136.648 23.6665 137.205 23.8768 138.12 23.8764C139.158 23.8759 139.684 23.7283 139.92 23.372C140.091 23.1136 140.11 22.5763 140.14 17.0279C140.158 13.6939 140.142 10.7542 140.104 10.4952C140.055 10.1639 139.938 9.93541 139.71 9.72479C139.394 9.43257 139.356 9.42523 138.163 9.42523C136.513 9.42523 136.51 9.42194 136.51 7.79249C136.51 6.75259 136.48 6.54782 136.299 6.31914C135.911 5.83128 135.673 5.79993 132.616 5.83372L129.758 5.86539L129.429 6.17749L129.1 6.48958V7.74488C129.1 9.47167 129.12 9.4535 127.262 9.40696C126.17 9.37965 125.849 9.33789 125.769 9.21271C125.713 9.12504 125.667 8.53687 125.666 7.90566C125.664 6.61561 125.538 6.23678 125.023 5.97346C124.755 5.83638 124.022 5.81353 120.112 5.82065C117.364 5.82565 115.399 5.87145 115.225 5.93446ZM145.563 6.01947C145.065 6.32009 144.993 6.53283 144.993 7.69441C144.993 8.80348 145.087 9.07563 145.562 9.34469C145.736 9.44287 146.882 9.4925 149.879 9.5315L153.959 9.58463L153.989 11.111C154.009 12.1459 153.979 12.6848 153.895 12.7847C153.795 12.904 153.179 12.9319 150.641 12.9319C147.978 12.9319 147.475 12.9567 147.271 13.0978C146.819 13.4112 146.711 13.7943 146.711 15.0838C146.711 15.8802 146.667 16.3332 146.582 16.4174C146.498 16.5009 146.051 16.5449 145.288 16.5449C143.467 16.5449 143.167 16.8076 143.167 18.4062C143.167 19.961 143.377 20.1523 145.08 20.1556C145.749 20.1568 146.389 20.2074 146.503 20.2679C146.692 20.3677 146.711 20.5018 146.711 21.7131V23.0483L147.076 23.4096L147.441 23.7709H152.348H157.256L157.567 23.4408L157.879 23.1108V16.595V10.0792L157.557 9.7606C157.237 9.44394 157.227 9.44192 155.835 9.40717C154.735 9.37965 154.412 9.33789 154.333 9.21271C154.277 9.12504 154.23 8.5137 154.229 7.85412C154.228 6.92112 154.188 6.59553 154.051 6.38757C153.679 5.8266 153.568 5.81226 149.589 5.81268C146.131 5.813 145.885 5.82565 145.563 6.01947ZM162.53 6.01947C162.342 6.13307 162.136 6.32094 162.074 6.4372C161.995 6.5831 161.959 10.5646 161.959 19.3061C161.959 28.0476 161.976 28.8 162.276 29.8C162.632 29.9605 164.663 29.9583 164.976 29.8C165.593 29.4878 165.715 29.3 165.715 28.1176C165.718 24.384 165.731 24.1111 165.914 23.9467C166.087 23.7915 166.479 23.7709 169.251 23.7709H172.392L172.706 23.4603C173.018 23.1513 173.02 23.1431 173.02 21.8663C173.02 20.1488 173.011 20.1579 174.682 20.1579C175.893 20.1579 175.922 20.1523 176.266 19.8479L176.617 19.538L176.647 14.9562C176.674 10.9258 176.656 10.3311 176.505 10.0144C176.239 9.46009 175.818 9.31897 174.43 9.31897C173.365 9.31897 173.23 9.29761 173.131 9.11346C173.07 9.00039 173.02 8.38937 173.02 7.75561C173.02 6.4915 172.935 6.25814 172.374 5.97102C172.113 5.83744 171.336 5.81236 167.468 5.81268C163.107 5.813 162.855 5.82363 162.53 6.01947ZM184.006 5.96783C183.464 6.20129 183.328 6.58968 183.328 7.91097C183.328 8.66608 183.284 9.10793 183.199 9.19145C183.114 9.27636 182.643 9.31897 181.793 9.31897H180.515L180.15 9.68027L179.785 10.0416V11.1567C179.785 12.2407 179.793 12.2811 180.096 12.6019L180.408 12.9319H181.629C183.346 12.9319 183.328 12.916 183.328 14.5083C183.328 15.5081 183.364 15.8056 183.511 16.0165C183.877 16.5421 183.85 16.538 187.09 16.5415C189.685 16.5444 190.19 16.5702 190.392 16.7104C190.619 16.8683 190.63 16.9451 190.63 18.4069C190.63 19.8118 190.613 19.947 190.423 20.0479C190.29 20.1181 188.77 20.1579 186.226 20.1579H182.238L181.924 20.4685C181.615 20.7747 181.61 20.796 181.61 21.9644C181.61 23.1328 181.615 23.1541 181.924 23.4603L182.238 23.7709L186.193 23.7675C189.134 23.765 190.19 23.7309 190.313 23.6346C190.771 23.2776 190.845 23.0144 190.845 21.7446C190.845 20.1224 190.807 20.1579 192.555 20.1579H193.873L194.185 19.8278C194.485 19.5096 194.496 19.4604 194.496 18.4427C194.496 16.7687 194.24 16.5449 192.322 16.5449C191.517 16.5449 191.059 16.5016 190.974 16.4174C190.888 16.332 190.845 15.8554 190.845 14.9722V13.6545L190.48 13.2932L190.115 12.9319H187.003C184.482 12.9319 183.868 12.904 183.768 12.7847C183.684 12.6848 183.654 12.1459 183.674 11.111L183.704 9.58463L187.731 9.5315C191.914 9.47635 191.973 9.46965 192.403 8.99901C192.586 8.79966 192.617 8.61455 192.617 7.73064C192.617 6.54899 192.497 6.22499 191.968 5.97643C191.478 5.74659 184.538 5.73893 184.006 5.96783ZM172.676 9.65901C172.773 9.75455 172.805 11.0435 172.805 14.8053C172.805 19.226 172.785 19.8438 172.636 19.991C172.49 20.1352 172.035 20.1579 169.289 20.1579C166.482 20.1579 166.087 20.1374 165.914 19.982C165.729 19.8164 165.718 19.5148 165.718 14.7964C165.718 11.0415 165.75 9.75455 165.846 9.65901C166.031 9.47677 172.492 9.47677 172.676 9.65901ZM153.805 16.6549C153.996 16.7562 154.013 16.8917 154.013 18.3514C154.013 19.8112 153.996 19.9466 153.805 20.0479C153.676 20.1164 152.437 20.1579 150.523 20.1579C148.609 20.1579 147.37 20.1164 147.241 20.0479C147.05 19.9469 147.033 19.8116 147.033 18.3859C147.033 17.0326 147.057 16.816 147.221 16.6928C147.459 16.5142 153.474 16.4796 153.805 16.6549Z" fill="#242424"/>
</g>
<defs>
<clipPath id="clip0_1_196">
<rect width="194" height="30" fill="white"/>
</clipPath>
</defs>
</svg>
