<?xml version="1.0" encoding="utf-8"?>
<svg xmlns="http://www.w3.org/2000/svg" viewBox="0 0 50 50" fill="#2634aa"><path d="M 25 1 C 16.179688 1 9 8.179688 9 17 C 9 31.113281 23.628906 47.945313 24.25 48.65625 C 24.441406 48.875 24.710938 49 25 49 C 25.308594 48.980469 25.558594 48.875 25.75 48.65625 C 26.371094 47.933594 41 30.8125 41 17 C 41 8.179688 33.820313 1 25 1 Z M 25 12 C 28.3125 12 31 14.6875 31 18 C 31 21.3125 28.3125 24 25 24 C 21.6875 24 19 21.3125 19 18 C 19 14.6875 21.6875 12 25 12 Z" fill="#2634aa"/></svg>
