<?xml version="1.0" encoding="utf-8"?>
<svg xmlns="http://www.w3.org/2000/svg" viewBox="0 0 50 50" fill="#2634aa" style="animation: spin 4s linear infinite;">
    <style>
        @keyframes spin {
            0% { transform: rotate(0deg); }
            100% { transform: rotate(360deg); }
        }
    </style>
    <path d="M 24.976562 2.4785156 A 1.50015 1.50015 0 0 0 23.5 4 L 23.5 11 A 1.50015 1.50015 0 1 0 26.5 11 L 26.5 4 A 1.50015 1.50015 0 0 0 24.976562 2.4785156 z M 14.431641 5.2949219 A 1.50015 1.50015 0 0 0 13.201172 7.5625 L 16.701172 13.625 A 1.50015 1.50015 0 1 0 19.298828 12.126953 L 15.798828 6.0625 A 1.50015 1.50015 0 0 0 14.431641 5.2949219 z M 35.523438 5.2949219 A 1.50015 1.50015 0 0 0 34.201172 6.0625 L 30.701172 12.126953 A 1.50015 1.50015 0 1 0 33.298828 13.625 L 36.798828 7.5625 A 1.50015 1.50015 0 0 0 35.523438 5.2949219 z M 6.8515625 12.990234 A 1.50015 1.50015 0 0 0 6.0625 15.798828 L 12.126953 19.298828 A 1.50015 1.50015 0 1 0 13.625 16.701172 L 7.5625 13.201172 A 1.50015 1.50015 0 0 0 6.8515625 12.990234 z M 43.253906 12.990234 A 1.50015 1.50015 0 0 0 42.4375 13.201172 L 36.375 16.701172 A 1.50015 1.50015 0 1 0 37.873047 19.298828 L 43.9375 15.798828 A 1.50015 1.50015 0 0 0 43.253906 12.990234 z M 4 23.5 A 1.50015 1.50015 0 1 0 4 26.5 L 11 26.5 A 1.50015 1.50015 0 1 0 11 23.5 L 4 23.5 z M 39 23.5 A 1.50015 1.50015 0 1 0 39 26.5 L 46 26.5 A 1.50015 1.50015 0 1 0 46 23.5 L 39 23.5 z M 12.943359 30.490234 A 1.50015 1.50015 0 0 0 12.126953 30.701172 L 6.0625 34.201172 A 1.50015 1.50015 0 1 0 7.5625 36.798828 L 13.625 33.298828 A 1.50015 1.50015 0 0 0 12.943359 30.490234 z M 37.162109 30.490234 A 1.50015 1.50015 0 0 0 36.375 33.298828 L 42.4375 36.798828 A 1.50015 1.50015 0 1 0 43.9375 34.201172 L 37.873047 30.701172 A 1.50015 1.50015 0 0 0 37.162109 30.490234 z M 18.023438 35.605469 A 1.50015 1.50015 0 0 0 16.701172 36.375 L 13.201172 42.4375 A 1.50015 1.50015 0 1 0 15.798828 43.9375 L 19.298828 37.873047 A 1.50015 1.50015 0 0 0 18.023438 35.605469 z M 31.931641 35.607422 A 1.50015 1.50015 0 0 0 30.701172 37.873047 L 34.201172 43.9375 A 1.50015 1.50015 0 1 0 36.798828 42.4375 L 33.298828 36.375 A 1.50015 1.50015 0 0 0 31.931641 35.607422 z M 24.976562 37.478516 A 1.50015 1.50015 0 0 0 23.5 39 L 23.5 46 A 1.50015 1.50015 0 1 0 26.5 46 L 26.5 39 A 1.50015 1.50015 0 0 0 24.976562 37.478516 z" fill="#2634aa"/>
</svg>
