<svg width="571" height="232" viewBox="0 0 571 232" fill="none" xmlns="http://www.w3.org/2000/svg">
<path d="M12.96 138.44V111.272H1.344V101H12.96V85.448H25.728V101H40.512V111.272H25.728V134.6C25.728 137.576 26.784 138.44 29.568 138.44H42.624V149H25.248C16.704 149 12.96 145.352 12.96 138.44ZM48.8355 168.392V157.448H65.7315C68.7075 157.448 69.5715 156.584 69.5715 153.608V145.448L46.3395 101H60.3555L76.1955 131.72L90.9795 101H104.996L82.3395 145.352V156.68C82.3395 164.84 78.5955 168.392 70.6275 168.392H48.8355ZM105.561 125C105.561 110.792 116.025 100.04 133.209 100.04C146.937 100.04 156.537 106.856 158.073 117.8H145.113C144.057 113.192 139.737 110.312 133.881 110.312H132.537C123.225 110.312 118.425 117.032 118.425 125C118.425 132.968 123.225 139.688 132.537 139.688H133.881C139.641 139.688 143.961 136.52 145.113 132.2H158.073C156.537 142.376 146.745 149.96 133.209 149.96C115.065 149.96 105.561 139.784 105.561 125ZM168.254 149V81.8H181.022V108.008C184.382 103.112 189.95 100.04 198.014 100.04C211.358 100.04 218.558 108.296 218.558 119.816V149H205.79V122.12C205.79 114.824 202.622 110.312 196.094 110.312H194.75C187.55 110.312 181.022 116.264 181.022 124.808V149H168.254ZM228.746 125C228.746 109.928 240.266 100.04 256.97 100.04C273.482 100.04 285.194 109.928 285.194 125C285.194 140.072 273.482 149.96 256.97 149.96C240.266 149.96 228.746 140.072 228.746 125ZM256.298 139.688H257.642C266.186 139.688 272.33 133.928 272.33 125C272.33 116.072 266.186 110.312 257.642 110.312H256.298C247.754 110.312 241.61 116.072 241.61 125C241.61 133.928 247.754 139.688 256.298 139.688ZM295.847 149V101H308.615V106.76C311.687 102.536 316.967 100.04 323.879 100.04C332.231 100.04 338.759 102.92 341.927 108.68C345.863 102.632 352.967 100.04 361.127 100.04C376.679 100.04 383.399 108.584 383.399 120.488V149H370.631V121.832C370.631 114.824 367.271 110.312 360.455 110.312H359.111C351.431 110.312 345.959 116.264 345.959 125.192V149H333.191V121.832C333.191 114.824 329.543 110.312 322.247 110.312H320.903C313.607 110.312 308.615 116.264 308.615 125.192V149H295.847ZM393.367 135.752C393.367 125.384 401.143 120.488 413.335 119.72L429.655 118.568V117.416C429.655 112.808 425.623 110.312 418.711 110.312H417.175C412.087 110.312 408.151 112.424 407.671 115.88H394.711C395.671 106.76 404.983 100.04 417.847 100.04C433.303 100.04 441.943 107.528 441.943 118.28V138.44C441.943 141.512 442.135 145.064 442.615 149H430.807C430.615 147.944 430.423 146.6 430.327 144.872C430.231 143.144 430.135 141.992 430.135 141.416C427.831 145.832 421.591 149.96 413.335 149.96C400.567 149.96 393.367 144.008 393.367 135.752ZM414.295 139.688H415.639C422.743 139.688 429.655 136.808 429.655 130.76V127.784L416.407 128.744C409.207 129.224 406.231 131.336 406.231 134.504C406.231 137.96 408.919 139.688 414.295 139.688ZM455.222 168.2V101H467.99V107.048C471.35 102.728 478.07 100.04 485.846 100.04C499.958 100.04 510.998 109.736 510.998 125C510.998 141.032 500.054 149.96 486.038 149.96C477.494 149.96 471.35 146.984 467.99 142.664V168.2H455.222ZM482.774 139.688H484.118C492.374 139.688 498.134 134.312 498.134 125C498.134 115.688 492.374 110.312 484.118 110.312H482.774C474.326 110.312 467.99 115.688 467.99 125C467.99 134.312 474.326 139.688 482.774 139.688ZM518.137 133.16H531.097C531.481 137.48 535.705 139.688 541.561 139.688H542.905C549.337 139.688 552.505 138.344 552.505 135.752C552.505 133.736 550.777 132.584 545.497 131.528L537.529 129.992C526.105 127.688 520.441 123.56 520.441 115.016C520.441 105.512 529.945 100.04 542.233 100.04C557.593 100.04 565.561 106.376 566.329 116.84H553.369C552.985 113 549.145 110.312 542.905 110.312H541.561C536.281 110.312 533.305 111.752 533.305 114.056C533.305 115.976 534.649 117.032 540.409 118.184L547.897 119.624C559.321 121.64 565.369 126.248 565.369 135.08C565.369 144.104 557.401 149.96 542.233 149.96C527.257 149.96 518.713 143.432 518.137 133.16Z" fill="#543158"/>
</svg>
